<svg width="120" height="120" viewBox="-10 -10 140 140" fill="none" xmlns="http://www.w3.org/2000/svg" role="img" aria-label="Ecology">
  <defs>
    <!-- Subtle hand-drawn wobble: one continuous noise field displaces the spokes
         and their nodes together, so connections stay attached. -->
    <filter id="ecology-rough" x="-25%" y="-25%" width="150%" height="150%">
      <feTurbulence type="fractalNoise" baseFrequency="0.017" numOctaves="2" seed="11" result="noise"/>
      <feDisplacementMap in="SourceGraphic" in2="noise" scale="2.4" xChannelSelector="R" yChannelSelector="G"/>
    </filter>
  </defs>
  <g filter="url(#ecology-rough)">
    <!-- a clean radial burst: every spoke runs from the central node outward -->
    <g stroke="#699BCB" stroke-width="2.3" stroke-linecap="round">
      <line x1="60" y1="60" x2="58" y2="14"/>
      <line x1="60" y1="60" x2="88" y2="20"/>
      <line x1="60" y1="60" x2="104" y2="44"/>
      <line x1="60" y1="60" x2="108" y2="72"/>
      <line x1="60" y1="60" x2="96" y2="100"/>
      <line x1="60" y1="60" x2="74" y2="112"/>
      <line x1="60" y1="60" x2="46" y2="110"/>
      <line x1="60" y1="60" x2="22" y2="96"/>
      <line x1="60" y1="60" x2="14" y2="66"/>
      <line x1="60" y1="60" x2="20" y2="38"/>
      <line x1="60" y1="60" x2="42" y2="20"/>
    </g>
    <!-- solid node at the center and at every spoke tip; sizes vary for rhythm -->
    <g fill="#699BCB">
      <circle cx="60" cy="60" r="7"/>
      <circle cx="58" cy="14" r="4.2"/>
      <circle cx="88" cy="20" r="5.2"/>
      <circle cx="104" cy="44" r="4.6"/>
      <circle cx="108" cy="72" r="5"/>
      <circle cx="96" cy="100" r="4.2"/>
      <circle cx="74" cy="112" r="5"/>
      <circle cx="46" cy="110" r="4.4"/>
      <circle cx="22" cy="96" r="5"/>
      <circle cx="14" cy="66" r="4.6"/>
      <circle cx="20" cy="38" r="5"/>
      <circle cx="42" cy="20" r="4"/>
    </g>
  </g>
</svg>
